{"title":"Pan.2015.CAM.READNFO.XviD-MenaceIISociety","uid":12614722,"size":1353444192,"categoryP":"video","categoryS":"movies","magnet":"?xt=urn:btih:4e84d3d7689df3f5b7b5d2551f4b0826df7f4033&amp;dn=Pan.2015.CAM.READNFO.XviD-MenaceIISociety&amp;tr=udp%3A%2F%2Ftracker.leechers-paradise.org%3A6969&amp;tr=udp%3A%2F%2Fzer0day.ch%3A1337&amp;tr=udp%3A%2F%2Fopen.demonii.com%3A1337&amp;tr=udp%3A%2F%2Ftracker.coppersurfer.tk%3A6969&amp;tr=udp%3A%2F%2Fexodus.desync.com%3A6969","seeders":0,"leechers":0,"uploader":"TvTeam","files":4,"time":1445503267,"description":"------------------------------------------------------------------------\r\n\r  https://www.torrenting.com\r\n\r\nSign up is OPEN - for time being. Come and have fun.\r\n\r\n------------------------------------------------------------------------[center][img]http://s27.postimg.org/5s4adi1u9/folder.png[/img]\n\nPan.2015.CAM.READNFO.XviD-MenaceIISociety \nhttp://www.imdb.com/title/tt3332064/\n\nSource: Video = Latino TS // Audio = UnKnOwN [THANKS]\n\nNOTE: 1st off started with trying to fix the perspective/movement at the start, adding borders to compensate for the remaining AR, and centred it, it doesnt really make a big diffrence could do with 3 mins of a new start, also run ugalarm blur over the 2 site logos at 2 seperate points, lowered the bright tones down, adjusted gamma_y, off_y, off_v slightly, adjusted some gain, cont, sat, then did what i could to sync unknowns cam audio to it,  took a few cuts but got there in the end, enjoy :)\n\nGeneral\nComplete name                            : Pan.2015.CAM.READNFO.XviD-MenaceIISociety.avi\nFormat                                   : AVI\nFormat/Info                              : Audio Video Interleave\nFile size                                : 1.22 GiB\nDuration                                 : 1h 42mn\nOverall bit rate                         : 1 706 Kbps\nWriting library                          : VirtualDub build 35491/release\n\nVideo\nID                                       : 0\nFormat                                   : MPEG-4 Visual\nFormat profile                           : Advanced   \nFormat settings, BVOP                    : 2\nFormat settings, QPel                    : No\nFormat settings, GMC                     : No warppoints\nFormat settings, Matrix                  : Default (H.263)\nMuxing mode                              : Packed bitstream\nCodec ID                                 : XVID\nCodec ID/Hint                            : XviD\nDuration                                 : 1h 42mn\nBit rate                                 : 1 502 Kbps\nWidth                                    : 720 pixels\nHeight                                   : 304 pixels\nDisplay aspect ratio                     : 2.35:1\nFrame rate                               : 29.970 fps\nColor space                              : YUV\nChroma subsampling                       : 4:2:0\nBit depth                                : 8 bits\nScan type                                : Progressive\nCompression mode                         : Lossy\nBits/(Pixel*Frame)                       : 0.229\nStream size                              : 1.08 GiB (88%)\nWriting library                          : XviD 73\n\nAudio\nID                                       : 1\nFormat                                   : MPEG Audio\nFormat version                           : Version 1\nFormat profile                           : Layer 3\nMode                                     : Joint stereo\nMode extension                           : MS Stereo\nCodec ID                                 : 55\nCodec ID/Hint                            : MP3\nDuration                                 : 1h 42mn\nBit rate mode                            : Constant\nBit rate                                 : 192 Kbps\nChannel(s)                               : 2 channels\nSampling rate                            : 44.1 KHz\nCompression mode                         : Lossy\nDelay relative to video                  : 26ms\nStream size                              : 141 MiB (11%)\nAlignment                                : Split accross interleaves\nInterleave, duration                     : 33 ms (1.00 video frame)\nInterleave, preload duration             : 500 ms\nWriting library                          : LAME3.99.5\n\n[img]http://i.imgur.com/21MzB7O.jpg[/img] \n[img]http://i.imgur.com/YBh73Cp.jpg[/img] \n[img]http://i.imgur.com/Ac1a3ck.jpg[/img] \n[img]http://i.imgur.com/ncyV4pF.jpg[/img] \n[img]http://i.imgur.com/E2expIf.jpg[/img] \n[img]http://i.imgur.com/RlQhUdS.jpg[/img] \n[img]http://i.imgur.com/hprh3pU.jpg[/img] \n[img]http://i.imgur.com/OuAYnPr.jpg[/img] \n[img]http://i.imgur.com/ha12hI0.jpg[/img] \n[img]http://i.imgur.com/ifWVyaO.jpg[/img] \n[img]http://i.imgur.com/QTJZuE1.jpg[/img] \n[img]http://i.imgur.com/zHPKC5O.jpg[/img] \n \n[img]http://s17.postimg.org/r1iiyw8yn/Untitled_1.png[/img][/center]","torrent":{"xt":"urn:btih:4e84d3d7689df3f5b7b5d2551f4b0826df7f4033","amp;dn":"Pan.2015.CAM.READNFO.XviD-MenaceIISociety","amp;tr":["udp%3A%2F%2Ftracker.leechers-paradise.org%3A6969","udp%3A%2F%2Fzer0day.ch%3A1337","udp%3A%2F%2Fopen.demonii.com%3A1337","udp%3A%2F%2Ftracker.coppersurfer.tk%3A6969","udp%3A%2F%2Fexodus.desync.com%3A6969"],"infoHash":"4e84d3d7689df3f5b7b5d2551f4b0826df7f4033","infoHashBuffer":{"type":"Buffer","data":[78,132,211,215,104,157,243,245,183,181,210,85,31,75,8,38,223,127,64,51]},"announce":[],"urlList":[]}}